<svg width="22" height="22" viewBox="0 0 22 22" fill="none" xmlns="http://www.w3.org/2000/svg">
<path fill-rule="evenodd" clip-rule="evenodd" d="M11 15.6667C8.42267 15.6667 6.33333 13.5773 6.33333 11C6.33333 8.42267 8.42267 6.33333 11 6.33333C13.5773 6.33333 15.6667 8.42267 15.6667 11C15.6667 13.5773 13.5773 15.6667 11 15.6667ZM11 7.5C9.067 7.5 7.5 9.067 7.5 11C7.5 12.933 9.067 14.5 11 14.5C12.933 14.5 14.5 12.933 14.5 11C14.5 9.067 12.933 7.5 11 7.5Z" fill="#6D5F67"/>
<path d="M16.8333 4C16.189 4 15.6667 4.52233 15.6667 5.16667C15.6667 5.811 16.189 6.33333 16.8333 6.33333C17.4777 6.33333 18 5.811 18 5.16667C18 4.52233 17.4777 4 16.8333 4Z" fill="#6D5F67"/>
<path fill-rule="evenodd" clip-rule="evenodd" d="M5.16667 0.5C2.58934 0.5 0.5 2.58934 0.5 5.16667V16.8333C0.5 19.4107 2.58934 21.5 5.16667 21.5H16.8333C19.4107 21.5 21.5 19.4107 21.5 16.8333V5.16667C21.5 2.58934 19.4107 0.5 16.8333 0.5H5.16667ZM16.8333 1.66667H5.16667C3.23367 1.66667 1.66667 3.23367 1.66667 5.16667V16.8333C1.66667 18.7663 3.23367 20.3333 5.16667 20.3333H16.8333C18.7663 20.3333 20.3333 18.7663 20.3333 16.8333V5.16667C20.3333 3.23367 18.7663 1.66667 16.8333 1.66667Z" fill="#6D5F67"/>
</svg>
