<svg width="22" height="20" viewBox="0 0 22 20" fill="none" xmlns="http://www.w3.org/2000/svg">
<path d="M21.019 0.843777C20.8285 0.679189 20.5965 0.569884 20.3483 0.527705C20.1 0.485527 19.845 0.512082 19.6108 0.604495L1.37743 7.76764C1.09933 7.87689 0.864077 8.07325 0.706884 8.32735C0.549691 8.58145 0.479008 8.87962 0.505413 9.17724C0.531817 9.47486 0.653889 9.75593 0.853361 9.97839C1.05283 10.2008 1.31898 10.3527 1.61197 10.4113L6.40216 11.3692V17.316C6.40187 17.5897 6.48283 17.8573 6.63477 18.085C6.78671 18.3126 7.00279 18.49 7.25565 18.5948C7.50851 18.6995 7.78677 18.7268 8.05517 18.6733C8.32357 18.6197 8.57004 18.4877 8.76336 18.294L11.4574 15.5998L15.4868 19.1458C15.7374 19.3683 16.0608 19.4914 16.3959 19.4918C16.5416 19.4916 16.6864 19.4686 16.825 19.4237C17.0536 19.3512 17.2592 19.22 17.4212 19.0432C17.5833 18.8665 17.6962 18.6503 17.7487 18.4163L21.4647 2.20073C21.5213 1.95541 21.5097 1.69927 21.4311 1.46007C21.3526 1.22086 21.2101 1.0077 21.0191 0.843678L21.019 0.843777ZM1.68636 9.07243C1.67996 9.02958 1.68895 8.98585 1.71174 8.94901C1.73453 8.91216 1.76965 8.88459 1.81085 8.87119L17.0677 2.87738L6.8575 10.2514L1.84444 9.24868C1.80149 9.24276 1.76204 9.2218 1.7331 9.18953C1.70415 9.15726 1.68759 9.11576 1.68636 9.07243ZM7.92499 17.4558C7.89735 17.4834 7.86215 17.5022 7.82383 17.5099C7.7855 17.5175 7.74578 17.5136 7.70968 17.4986C7.67358 17.4837 7.64272 17.4583 7.62101 17.4259C7.5993 17.3934 7.58771 17.3552 7.5877 17.3161V12.1946L10.5657 14.8152L7.92499 17.4558ZM16.5931 18.1515C16.5855 18.1849 16.5693 18.2157 16.5462 18.241C16.523 18.2662 16.4937 18.285 16.4612 18.2955C16.4286 18.3061 16.3938 18.3079 16.3603 18.301C16.3268 18.294 16.2956 18.2785 16.2699 18.2558L7.94405 10.9291L20.2919 2.01124L16.5931 18.1515Z" fill="#6D5F67"/>
</svg>
