<svg width="22" height="22" viewBox="0 0 22 22" fill="none" xmlns="http://www.w3.org/2000/svg">
<path d="M8.23344 6.01127C7.79443 6.01127 7.37339 6.18567 7.06295 6.4961C6.75252 6.80654 6.57812 7.22758 6.57812 7.66659V8.77152C6.57812 10.5292 7.27637 12.215 8.51927 13.4579C9.76216 14.7008 11.4479 15.399 13.2056 15.399H14.3105C14.7495 15.399 15.1706 15.2246 15.481 14.9142C15.7915 14.6037 15.9658 14.1827 15.9658 13.7437C15.9658 13.3047 15.7915 12.8836 15.481 12.5732C15.1706 12.2628 14.7495 12.0884 14.3105 12.0884H13.2056C12.7666 12.0884 12.3455 12.2628 12.0351 12.5732C11.9231 12.6852 11.8287 12.8117 11.7539 12.9482C11.1294 12.7311 10.5554 12.3746 10.0789 11.8982C9.6025 11.4217 9.24601 10.8478 9.02892 10.2232C9.16543 10.1484 9.29189 10.0541 9.40393 9.94201C9.71437 9.63157 9.88877 9.21054 9.88877 8.77152V7.66659C9.88877 7.22758 9.71437 6.80654 9.40393 6.4961C9.0935 6.18567 8.67246 6.01127 8.23344 6.01127Z" fill="#6D5F67"/>
<path fill-rule="evenodd" clip-rule="evenodd" d="M17.8154 3.01447C15.8705 1.35562 13.3872 0.463552 10.8313 0.505668C8.27543 0.547784 5.82278 1.52119 3.93364 3.24322C2.04449 4.96524 0.848721 7.3175 0.570726 9.85855C0.304077 12.2959 0.899406 14.7462 2.24759 16.7864L0.54563 20.706C0.464711 20.8924 0.492821 21.1082 0.618788 21.2676C0.744754 21.427 0.948169 21.5042 1.14819 21.4685L6.55329 20.5053C8.80958 21.5618 11.3704 21.7821 13.7771 21.1228C16.2425 20.4475 18.3767 18.8957 19.7792 16.7585C21.1817 14.6214 21.756 12.0459 21.3944 9.51542C21.0329 6.9849 19.7603 4.67332 17.8154 3.01447ZM10.8495 1.60838C13.1368 1.57069 15.3592 2.36902 17.0997 3.85356C18.8402 5.3381 19.9791 7.40679 20.3027 9.67141C20.6262 11.936 20.1123 14.2409 18.8571 16.1534C17.602 18.066 15.6921 19.4548 13.4858 20.0592C11.2794 20.6635 8.92835 20.4419 6.87379 19.436C6.76863 19.3845 6.64982 19.3678 6.53455 19.3884L1.96664 20.2024L3.38037 16.9466C3.45696 16.7702 3.43612 16.5666 3.32536 16.4094C2.00792 14.5392 1.41826 12.2525 1.66704 9.97849C1.91583 7.70444 2.98595 5.59935 4.67659 4.05827C6.36723 2.51719 8.56216 1.64607 10.8495 1.60838Z" fill="#6D5F67"/>
</svg>
